<?xml version="1.0" encoding="UTF-8"?>
<svg width="16px" height="21px" viewBox="0 0 16 21" version="1.1" xmlns="http://www.w3.org/2000/svg" xmlns:xlink="http://www.w3.org/1999/xlink">
    <!-- Generator: Sketch 50.2 (55047) - http://www.bohemiancoding.com/sketch -->
    <title>Shape Copy</title>
    <desc>Created with Sketch.</desc>
    <defs></defs>
    <g id="Page-1" stroke="none" stroke-width="1" fill="none" fill-rule="evenodd">
        <g id="iPhone-SE-Copy-6" transform="translate(-72.000000, -687.000000)" fill="#FFFFFF">
            <path d="M86,694 L85,694 L85,692 C85,689.2 82.8,687 80,687 C77.2,687 75,689.2 75,692 L75,694 L74,694 C72.9,694 72,694.9 72,696 L72,706 C72,707.1 72.9,708 74,708 L86,708 C87.1,708 88,707.1 88,706 L88,696 C88,694.9 87.1,694 86,694 L86,694 Z M80,703 C78.9,703 78,702.1 78,701 C78,699.9 78.9,699 80,699 C81.1,699 82,699.9 82,701 C82,702.1 81.1,703 80,703 L80,703 Z M83.1,694 L76.9,694 L76.9,692 C76.9,690.3 78.3,688.9 80,688.9 C81.7,688.9 83.1,690.3 83.1,692 L83.1,694 L83.1,694 Z" id="Shape-Copy"></path>
        </g>
    </g>
</svg>