<?xml version="1.0" encoding="UTF-8"?>
<svg width="20px" height="27px" viewBox="0 0 20 27" version="1.1" xmlns="http://www.w3.org/2000/svg" xmlns:xlink="http://www.w3.org/1999/xlink">
    <!-- Generator: Sketch 50.2 (55047) - http://www.bohemiancoding.com/sketch -->
    <title>Shape</title>
    <desc>Created with Sketch.</desc>
    <defs></defs>
    <g id="Page-1" stroke="none" stroke-width="1" fill="none" fill-rule="evenodd">
        <g id="Desktop-HD-Copy-49" transform="translate(-689.000000, -459.000000)" fill="#CCCCCC">
            <path d="M706.5,467.75 L705.25,467.75 L705.25,465.25 C705.25,461.75 702.5,459 699,459 C695.5,459 692.75,461.75 692.75,465.25 L692.75,467.75 L691.5,467.75 C690.125,467.75 689,468.875 689,470.25 L689,482.75 C689,484.125 690.125,485.25 691.5,485.25 L706.5,485.25 C707.875,485.25 709,484.125 709,482.75 L709,470.25 C709,468.875 707.875,467.75 706.5,467.75 L706.5,467.75 Z M699,479 C697.625,479 696.5,477.875 696.5,476.5 C696.5,475.125 697.625,474 699,474 C700.375,474 701.5,475.125 701.5,476.5 C701.5,477.875 700.375,479 699,479 L699,479 Z M702.875,467.75 L695.125,467.75 L695.125,465.25 C695.125,463.125 696.875,461.375 699,461.375 C701.125,461.375 702.875,463.125 702.875,465.25 L702.875,467.75 L702.875,467.75 Z" id="Shape"></path>
        </g>
    </g>
</svg>