<?xml version="1.0" encoding="UTF-8"?>
<svg width="99px" height="29px" viewBox="0 0 99 29" version="1.1" xmlns="http://www.w3.org/2000/svg" xmlns:xlink="http://www.w3.org/1999/xlink">
    <!-- Generator: Sketch 50.2 (55047) - http://www.bohemiancoding.com/sketch -->
    <title>Page 1 Copy 3</title>
    <desc>Created with Sketch.</desc>
    <defs>
        <polygon id="path-1" points="0 29 98.07 29 98.07 0.291 0 0.291"></polygon>
    </defs>
    <g id="Page-1" stroke="none" stroke-width="1" fill="none" fill-rule="evenodd">
        <g id="Desktop-HD-Copy-49" transform="translate(-170.000000, -15.000000)">
            <g id="Page-1-Copy-3" transform="translate(170.000000, 14.000000)">
                <g id="Group-9" transform="translate(0.000000, 0.709000)">
                    <path d="M15.7998,15.787 C15.3188,13.444 13.5788,11.134 12.3858,10.995 C10.9168,11.469 10.2258,12.235 8.5468,13.475 C7.4378,14.291 6.5468,14.637 6.5468,14.637 C6.5468,14.637 8.6768,18.614 11.4128,17.654 C12.6108,17.235 13.5908,14.891 15.7998,15.787" id="Fill-1" fill="#23B175"></path>
                    <path d="M19.0415,18.7733 C21.0765,14.8323 24.4915,12.8513 24.4915,12.8513 C24.4915,12.8513 22.7395,11.2013 19.7215,10.3843 C16.0925,9.4053 13.6285,10.3943 13.6285,10.3943 C13.6285,10.3943 16.2335,11.7203 17.0185,16.0533 C17.4785,18.5933 18.9195,18.7733 19.0415,18.7733" id="Fill-3" fill="#EC5956"></path>
                    <path d="M14.2666,0.4598 C12.6376,0.3688 10.8636,0.5208 8.9396,0.9998 C3.4026,2.3858 -2.0994,8.2758 1.1996,12.8518 C4.2026,16.7938 8.7776,11.4508 11.9236,9.8498 C10.6986,6.7028 11.8706,3.3128 14.2666,0.4598" id="Fill-5" fill="#27A8E0"></path>
                    <path d="M15.5962,0.5917 C13.2302,3.2177 11.9922,6.3627 12.9572,9.4047 C19.7322,6.8737 25.3112,11.9837 25.3112,11.9837 C25.3112,11.9837 26.6642,8.4787 23.9882,5.1357 C22.3812,3.1267 19.4982,1.1517 15.5962,0.5917" id="Fill-7" fill="#FAAD40"></path>
                </g>
                <g id="Group-48" transform="translate(0.000000, 0.709000)">
                    <path d="M34.7593,9.4052 L34.7593,13.2552 C35.1133,13.2972 35.7143,13.3582 36.4443,13.3582 C38.1713,13.3582 39.1103,12.6322 39.1103,11.2582 C39.1103,10.0292 38.1713,9.4052 36.5693,9.4052 L34.7593,9.4052 Z M34.7593,3.4962 L34.7593,7.1782 L36.4843,7.1782 C37.6713,7.1782 38.6503,6.5772 38.6503,5.2452 C38.6503,4.0582 37.7353,3.4342 36.3593,3.4342 C35.7783,3.4342 35.2173,3.4562 34.7593,3.4962 Z M32.1983,1.1442 C33.0123,1.1032 34.9463,1.0412 36.4013,1.0412 C39.8773,1.0412 41.1903,2.6232 41.1903,4.6412 C41.1903,6.3042 40.3553,7.3672 39.1103,7.9492 L39.1103,7.9902 C40.5433,8.3452 41.6673,9.4462 41.6673,11.3812 C41.6673,14.3782 39.3383,15.7532 36.2563,15.7532 C34.9243,15.7532 33.0543,15.7102 32.1983,15.6482 L32.1983,1.1442 Z" id="Fill-10" fill="#FFFFFF"></path>
                    <polygon id="Fill-12" fill="#FFFFFF" points="43.4937 15.6678 43.4937 6.3048 45.8847 6.3048 45.8847 12.2348 50.2547 6.3048 52.6487 6.3048 52.6487 15.6678 50.2547 15.6678 50.2547 9.7398 45.8847 15.6678"></polygon>
                    <path d="M60.2906,10.7567 L64.3256,15.6677 L61.2076,15.6677 L57.4996,10.9447 L60.8726,6.3047 L63.8906,6.3047 L60.2906,10.7567 Z M55.0266,15.6677 L57.4176,15.6677 L57.4176,6.3047 L55.0266,6.3047 L55.0266,15.6677 Z" id="Fill-14" fill="#FFFFFF"></path>
                    <polygon id="Fill-16" fill="#FFFFFF" points="65.4556 15.6678 65.4556 6.3048 67.8456 6.3048 67.8456 12.2348 72.2196 6.3048 74.6106 6.3048 74.6106 15.6678 72.2196 15.6678 72.2196 9.7398 67.8456 15.6678"></polygon>
                    <path d="M82.3374,15.6678 C80.9644,19.0198 80.0884,19.8298 78.7164,19.8298 C77.8634,19.8298 77.2394,19.4958 76.6964,19.1038 L77.4674,17.2908 C77.7164,17.4368 78.0714,17.6248 78.4444,17.6248 C79.0474,17.6248 79.4834,17.1468 79.8804,16.1688 L80.0884,15.6678 L75.7594,6.3048 L78.6314,6.3048 L80.8174,11.4238 C81.0064,11.8818 81.1314,12.3188 81.2744,12.7778 C81.3574,12.3408 81.4414,11.8818 81.6074,11.4028 L83.2944,6.3048 L86.0204,6.3048 L82.3374,15.6678 Z" id="Fill-18" fill="#FFFFFF"></path>
                    <polygon id="Fill-20" fill="#FFFFFF" points="87.17 6.3046 89.333 6.3046 92.516 10.2176 95.534 6.3046 97.637 6.3046 97.637 15.6676 95.241 15.6676 95.241 9.9476 92.477 13.4426 92.413 13.4426 89.562 9.9476 89.562 15.6676 87.17 15.6676"></polygon>
                    <polygon id="Fill-22" fill="#FFFFFF" points="0.4702 22.7655 4.7892 22.7655 4.7892 23.3665 2.9492 23.3665 2.9492 28.0245 2.3102 28.0245 2.3102 23.3665 0.4702 23.3665"></polygon>
                    <path d="M6.6656,23.3661 L6.6656,25.3931 C6.9206,25.4171 7.1686,25.4321 7.4326,25.4321 C8.2056,25.4321 8.6716,25.0341 8.6716,24.3731 C8.6716,23.7491 8.2956,23.3511 7.4616,23.3511 C7.2516,23.3511 6.9136,23.3581 6.6656,23.3661 L6.6656,23.3661 Z M6.0276,28.0241 L6.0276,22.7651 C6.3196,22.7651 7.0716,22.7501 7.4016,22.7501 C8.9036,22.7501 9.3476,23.5611 9.3476,24.3801 C9.3476,25.2361 8.7386,26.0331 7.4546,26.0331 C7.2436,26.0331 6.9286,26.0251 6.6656,26.0021 L6.6656,28.0241 L6.0276,28.0241 Z" id="Fill-24" fill="#FFFFFF"></path>
                    <polygon id="Fill-26" fill="#FFFFFF" points="10.8853 22.7655 13.8523 22.7655 13.8523 23.3665 11.5243 23.3665 11.5243 25.0635 13.6273 25.0635 13.6273 25.6645 11.5243 25.6645 11.5243 27.4225 13.9273 27.4225 13.9273 28.0245 10.8853 28.0245"></polygon>
                    <polygon id="Fill-28" fill="#FFFFFF" points="19.1089 25.6425 16.2169 25.6425 16.2169 28.0245 15.5789 28.0245 15.5789 22.7655 16.2169 22.7655 16.2169 25.0405 19.1089 25.0405 19.1089 22.7655 19.7479 22.7655 19.7479 28.0245 19.1089 28.0245"></polygon>
                    <path d="M22.5928,25.8309 L24.4858,25.8309 L23.5398,23.5839 L22.5928,25.8309 Z M23.2838,22.7349 L23.8318,22.7349 L26.0928,28.0239 L25.4098,28.0239 L24.7338,26.4309 L22.3378,26.4309 L21.6688,28.0239 L21.0228,28.0239 L23.2838,22.7349 Z" id="Fill-30" fill="#FFFFFF"></path>
                    <path d="M31.1465,25.2743 L33.3545,28.0243 L32.6115,28.0243 L30.4485,25.2813 L32.5295,22.7653 L33.2725,22.7653 L31.1465,25.2743 Z M29.6745,28.0243 L30.3135,28.0243 L30.3135,22.7653 L29.6745,22.7653 L29.6745,28.0243 Z M26.7225,22.7653 L27.4665,22.7653 L29.5465,25.2813 L27.3835,28.0243 L26.6405,28.0243 L28.8485,25.2813 L26.7225,22.7653 Z" id="Fill-32" fill="#FFFFFF"></path>
                    <polygon id="Fill-34" fill="#FFFFFF" points="34.6675 22.7655 37.6345 22.7655 37.6345 23.3665 35.3065 23.3665 35.3065 25.0635 37.4095 25.0635 37.4095 25.6645 35.3065 25.6645 35.3065 27.4225 37.7095 27.4225 37.7095 28.0245 34.6675 28.0245"></polygon>
                    <path d="M40,23.3661 L40,25.3931 C40.255,25.4171 40.503,25.4321 40.766,25.4321 C41.54,25.4321 42.005,25.0341 42.005,24.3731 C42.005,23.7491 41.629,23.3511 40.795,23.3511 C40.585,23.3511 40.248,23.3581 40,23.3661 L40,23.3661 Z M39.361,28.0241 L39.361,22.7651 C39.654,22.7651 40.405,22.7501 40.735,22.7501 C42.238,22.7501 42.681,23.5611 42.681,24.3801 C42.681,25.2361 42.072,26.0331 40.789,26.0331 C40.578,26.0331 40.263,26.0251 40,26.0021 L40,28.0241 L39.361,28.0241 Z" id="Fill-36" fill="#FFFFFF"></path>
                    <mask id="mask-2" fill="white">
                        <use xlink:href="#path-1"></use>
                    </mask>
                    <g id="Clip-39"></g>
                    <path d="M48.351,28.025 L48.99,28.025 L48.99,22.766 L48.351,22.766 L48.351,28.025 Z M44.858,25.326 L44.858,27.415 C45.061,27.423 45.249,27.437 45.489,27.437 C46.353,27.437 46.826,27.061 46.826,26.318 C46.826,25.649 46.36,25.281 45.512,25.281 C45.339,25.281 45.121,25.297 44.858,25.326 L44.858,25.326 Z M44.858,24.718 C45.144,24.696 45.384,24.681 45.557,24.681 C46.878,24.681 47.502,25.311 47.502,26.304 C47.502,27.408 46.721,28.039 45.415,28.039 C44.963,28.039 44.527,28.024 44.22,28.024 L44.22,22.766 L44.858,22.766 L44.858,24.718 Z" id="Fill-38" fill="#FFFFFF" mask="url(#mask-2)"></path>
                    <path d="M53.5992,27.4227 L56.2652,27.4227 L56.2652,23.3657 L54.4252,23.3657 L54.3582,24.3057 C54.2302,26.1147 53.7942,27.1827 53.5992,27.4227 L53.5992,27.4227 Z M52.3292,27.4227 L52.8932,27.4227 C53.1102,27.1517 53.6442,26.0187 53.7562,23.8177 L53.8092,22.7657 L56.9042,22.7657 L56.9042,27.4227 L57.6182,27.4227 L57.6182,28.9997 L57.0162,28.9997 L57.0162,28.0247 L52.9312,28.0247 L52.9312,28.9997 L52.3292,28.9997 L52.3292,27.4227 Z" id="Fill-40" fill="#FFFFFF" mask="url(#mask-2)"></path>
                    <path d="M62.1978,23.3661 L60.2898,23.3661 L60.1998,24.3581 C59.8918,27.7011 59.1858,28.1301 58.3598,28.0241 L58.3668,27.3851 C58.7428,27.4231 59.3738,27.2341 59.6138,23.8171 L59.6888,22.7651 L62.8368,22.7651 L62.8368,28.0241 L62.1978,28.0241 L62.1978,23.3661 Z" id="Fill-41" fill="#FFFFFF" mask="url(#mask-2)"></path>
                    <path d="M67.251,25.4686 L67.251,23.3656 C67.079,23.3586 66.764,23.3436 66.538,23.3436 C65.719,23.3436 65.284,23.8236 65.284,24.4476 C65.284,25.0036 65.734,25.3936 66.192,25.4686 L67.251,25.4686 Z M67.251,26.0716 L66.268,26.0716 L64.908,28.0246 L64.187,28.0246 L65.644,25.9576 C65.103,25.7396 64.607,25.2366 64.607,24.4856 C64.607,23.5386 65.238,22.7426 66.658,22.7426 C67.011,22.7426 67.583,22.7656 67.89,22.7656 L67.89,28.0246 L67.251,28.0246 L67.251,26.0716 Z" id="Fill-42" fill="#FFFFFF" mask="url(#mask-2)"></path>
                    <polygon id="Fill-43" fill="#FFFFFF" mask="url(#mask-2)" points="71.9068 22.7655 72.5528 22.7655 74.5278 25.4615 76.4208 22.7655 77.0288 22.7655 77.0288 28.0245 76.3898 28.0245 76.3898 23.7725 74.5278 26.3855 74.4298 26.3855 72.5448 23.7935 72.5448 28.0245 71.9068 28.0245"></polygon>
                    <path d="M81.2491,27.4979 C82.4511,27.4979 83.2541,26.5819 83.2541,25.3939 C83.2541,24.1699 82.3751,23.2909 81.2491,23.2909 C80.1071,23.2909 79.2441,24.1699 79.2441,25.3939 C79.2441,26.5879 80.1231,27.4979 81.2491,27.4979 M81.2491,22.6899 C82.7731,22.6899 83.9311,23.7939 83.9311,25.3939 C83.9311,26.9559 82.7731,28.0989 81.2491,28.0989 C79.7241,28.0989 78.5671,26.9939 78.5671,25.3939 C78.5671,23.8689 79.6871,22.6899 81.2491,22.6899" id="Fill-44" fill="#FFFFFF" mask="url(#mask-2)"></path>
                    <path d="M84.981,27.2723 L85.334,26.8443 C85.671,27.2433 86.234,27.4983 86.663,27.4983 C87.346,27.4983 87.857,27.1443 87.857,26.4913 C87.857,25.9723 87.482,25.6333 86.829,25.6333 L86.22,25.6333 L86.22,25.0343 L86.783,25.0343 C87.226,25.0343 87.654,24.6733 87.654,24.1463 C87.654,23.5773 87.241,23.2913 86.701,23.2913 C86.183,23.2913 85.821,23.5013 85.506,23.8763 L85.131,23.4563 C85.483,22.9983 86.085,22.6903 86.769,22.6903 C87.677,22.6903 88.293,23.1933 88.293,24.0873 C88.293,24.5303 88.045,25.0263 87.535,25.2893 L87.535,25.3113 C88.173,25.4323 88.496,25.9503 88.496,26.5513 C88.496,27.5203 87.663,28.0983 86.701,28.0983 C85.897,28.0983 85.259,27.6933 84.981,27.2723" id="Fill-45" fill="#FFFFFF" mask="url(#mask-2)"></path>
                    <polygon id="Fill-46" fill="#FFFFFF" mask="url(#mask-2)" points="90.1851 22.7655 93.1141 22.7655 93.1141 23.3665 90.8231 23.3665 90.8231 28.0245 90.1851 28.0245"></polygon>
                    <path d="M94.5699,25.8309 L96.4639,25.8309 L95.5169,23.5839 L94.5699,25.8309 Z M95.2609,22.7349 L95.8089,22.7349 L98.0699,28.0239 L97.3869,28.0239 L96.7109,26.4309 L94.3149,26.4309 L93.6459,28.0239 L92.9999,28.0239 L95.2609,22.7349 Z" id="Fill-47" fill="#FFFFFF" mask="url(#mask-2)"></path>
                </g>
            </g>
        </g>
    </g>
</svg>